<?xml version="1.0" encoding="UTF-8" standalone="no"?>
<!-- Created with Inkscape (http://www.inkscape.org/) -->

<svg
   width="256"
   height="256"
   viewBox="0 0 67.733335 67.733335"
   version="1.1"
   id="svg1"
   xml:space="preserve"
   inkscape:version="1.4 (86a8ad7, 2024-10-11)"
   sodipodi:docname="otoge-tracker-logo.svg"
   xmlns:inkscape="http://www.inkscape.org/namespaces/inkscape"
   xmlns:sodipodi="http://sodipodi.sourceforge.net/DTD/sodipodi-0.dtd"
   xmlns="http://www.w3.org/2000/svg"
   xmlns:svg="http://www.w3.org/2000/svg"><sodipodi:namedview
     id="namedview1"
     pagecolor="#ffffff"
     bordercolor="#000000"
     borderopacity="0.25"
     inkscape:showpageshadow="2"
     inkscape:pageopacity="0.0"
     inkscape:pagecheckerboard="0"
     inkscape:deskcolor="#d1d1d1"
     inkscape:document-units="mm"
     inkscape:zoom="0.70710678"
     inkscape:cx="-4.2426407"
     inkscape:cy="109.60155"
     inkscape:window-width="2560"
     inkscape:window-height="1369"
     inkscape:window-x="1072"
     inkscape:window-y="169"
     inkscape:window-maximized="1"
     inkscape:current-layer="layer2" /><defs
     id="defs1"><inkscape:path-effect
       effect="mirror_symmetry"
       start_point="37.775989,43.751815"
       end_point="37.775989,47.142919"
       center_point="37.775989,45.447367"
       id="path-effect2"
       is_visible="true"
       lpeversion="1.2"
       lpesatellites=""
       mode="free"
       discard_orig_path="false"
       fuse_paths="false"
       oposite_fuse="false"
       split_items="false"
       split_open="false"
       link_styles="false" /></defs><g
     inkscape:groupmode="layer"
     id="layer3"
     inkscape:label="mouse 1"
     transform="matrix(0.85913328,0,0,1.003081,2.3144078,-11.470261)"><rect
       style="fill:#0e55b1;fill-opacity:1;fill-rule:evenodd;stroke:none;stroke-width:0.657364;stroke-linecap:round;stroke-linejoin:round;stroke-miterlimit:5"
       id="rect3"
       width="24.040897"
       height="7.0612869"
       x="52.104195"
       y="48.736595" /></g><g
     inkscape:groupmode="layer"
     id="layer2"
     inkscape:label="mouse"
     transform="matrix(1.3545843,0,0,1.3290823,-19.82597,-27.482785)"><path
       id="path1"
       style="fill:#e6b341;fill-opacity:1;fill-rule:evenodd;stroke:#e6b341;stroke-width:1.882;stroke-linecap:round;stroke-linejoin:round;stroke-miterlimit:5;stroke-dasharray:none;stroke-opacity:1"
       d="m 19.29443,21.62452 c -0.652153,0.008 -1.161499,0.103455 -1.352373,0.262516 -0.381748,0.318124 -2.099362,3.626337 -2.353861,8.143689 -0.254499,4.517353 2.672282,8.971451 3.626652,10.116695 0.95437,1.145246 2.862874,0.826823 2.862874,0.826823 -0.318123,0.318124 -1.272664,2.732948 -1.399914,4.00544 -0.127249,1.272495 2.02e-4,3.120506 0.318326,3.884001 0.318123,0.763498 1.430858,3.247269 4.962488,5.090129 3.866662,2.017685 11.902633,2.228287 11.902633,2.228287 0,0 8.152065,-0.12382 11.731584,-2.169893 2.076566,-1.186977 4.149993,-3.42858 4.892207,-4.460193 0.606819,-0.147703 0.517962,0.0066 2.102715,0.38809 1.785937,0.429948 2.414322,1.124478 2.711979,2.315104 0.294505,1.17802 -0.231511,3.322792 -0.33073,4.654496 -0.09922,1.3317 -0.727604,8.045504 -0.661458,8.839254 0.06615,0.79375 -0.237238,4.392722 1.223698,4.828646 2.050521,0.611848 1.554427,-1.322916 1.554427,-1.322916 0,0 -0.530325,-1.668352 -0.562239,-3.108854 -0.03809,-1.719234 0.529084,-6.288987 0.595311,-6.713802 0.330727,-2.121456 0.915135,-5.975252 0.826824,-6.515366 -0.186508,-1.140691 0.07191,-2.209987 -1.984376,-4.086526 -0.826824,-0.75455 -1.941901,-1.662909 -4.025494,-1.874624 -1.113012,-0.113094 -0.0743,-0.371021 -0.992803,-0.286534 0.03634,-0.579568 0.04658,-1.166697 -0.0031,-1.663464 -0.12725,-1.272492 -1.147421,-3.654244 -1.465544,-3.972368 0,0 1.908505,0.317907 2.862875,-0.827339 0.95437,-1.145244 3.881151,-5.598826 3.626652,-10.116179 -0.254499,-4.517352 -1.972114,-7.826081 -2.353862,-8.144205 -0.381748,-0.318123 -2.036098,-0.381748 -3.56309,0 -1.526992,0.381748 -5.408016,4.008633 -5.853389,4.963004 -0.445373,0.95437 -0.445451,3.562573 -0.445451,3.562573 0,0 -1.590774,-1.462912 -2.990515,-2.035534 C 43.357732,27.862848 40.546842,26.97166 39.85855,26.844869 39.254116,26.73353 37.7455,26.637651 37.7455,26.637651 v 0.02119 c 0,0 -1.145421,-1.25e-4 -2.052071,0.127124 -0.69308,0.09727 -3.499182,1.017978 -4.898926,1.5906 -1.399741,0.572623 -2.990515,2.036052 -2.990515,2.036052 0,0 -7.8e-5,-2.60872 -0.445451,-3.56309 -0.445373,-0.954371 -4.326398,-4.58074 -5.85339,-4.962488 -0.763496,-0.190874 -1.558564,-0.270469 -2.210717,-0.262516 z m 18.45107,9.185486 0.04134,5.16e-4 c 0,0 2.653678,-0.0244 5.443595,1.951303 0.936066,0.662882 4.26282,3.753648 5.280815,5.980513 1.017995,2.226863 2.708159,4.6298 2.290816,7.316866 -0.229837,1.479805 -1.644363,4.038812 -3.690214,5.217253 -2.380467,1.371185 -9.38289,1.412317 -9.38289,1.412317 0,0 -6.18854,-0.30198 -9.288838,-1.470712 -2.209218,-0.832818 -3.544508,-3.72681 -3.690215,-5.217252 -0.152759,-1.562587 1.332198,-4.945537 2.522327,-7.085356 1.18336,-2.127646 4.17581,-5.469142 5.049304,-6.212541 2.24277,-1.908745 5.423959,-1.892907 5.423959,-1.892907 z"
       sodipodi:nodetypes="cssscssscscssssscssssscscssssscssccsscsscccsssscssssccc" /><path
       id="path2"
       style="fill:#e6b341;fill-opacity:1;fill-rule:evenodd;stroke:#e6b341;stroke-width:1.882;stroke-linecap:round;stroke-linejoin:round;stroke-miterlimit:5;stroke-dasharray:none;stroke-opacity:1"
       d="m 37.138474,43.742822 c -1.541822,0.0717 -1.89395,0.865418 -1.954058,0.959876 -0.08185,0.128622 -0.350712,0.712922 0.444417,1.484664 0.795125,0.771739 2.147156,0.947229 2.147156,0.947229 0,0 1.352031,-0.17549 2.147156,-0.947229 0.795129,-0.771742 0.526269,-1.356042 0.444417,-1.484664 -0.08185,-0.128624 -0.755765,-1.017616 -2.591573,-0.959115 0,0 -0.376084,-0.01292 -0.637515,-7.61e-4 z"
       sodipodi:nodetypes="ssscsscs" /></g></svg>
