<svg width="31" height="10" viewBox="0 0 31 10" fill="none" xmlns="http://www.w3.org/2000/svg">
<path d="M2.5 9.2113H1V5.7113C1 4.5113 2 4.2113 2.5 4.2113H7.5C8 4.2113 8.5 3.7113 8.5 3.2113C8.5 1.7113 7.83333 1.7113 7.5 1.7113H1V0.711304H8.5C9.5 0.711304 10 1.2113 10 3.2113C10 4.8113 9 5.2113 8.5 5.2113H3.5C2.7 5.2113 2.5 5.87797 2.5 6.2113V9.2113Z" fill="#91AEFF"/>
<path d="M9 9.2113V8.2113H12.5C13.3 8.2113 13.5 7.54464 13.5 7.2113V2.2113C13.5 1.4113 14.5 0.87797 15 0.711304H19.5V1.7113H16C15.2 1.7113 15 2.37797 15 2.7113V7.7113C15 8.5113 14 9.04464 13.5 9.2113H9Z" fill="#91AEFF"/>
<path d="M22 0.711304H20.5C21.5 2.87797 24.2 7.5113 25 8.7113C25.6667 9.7113 26.1667 9.2113 26.5 8.7113L30.5 1.2113V0.711304H29.5L26.5 6.7113C26.1 7.5113 25.6667 7.04464 25.5 6.7113L22 0.711304Z" fill="#91AEFF"/>
<path d="M2.5 9.2113H1V5.7113C1 4.5113 2 4.2113 2.5 4.2113H7.5C8 4.2113 8.5 3.7113 8.5 3.2113C8.5 1.7113 7.83333 1.7113 7.5 1.7113H1V0.711304H8.5C9.5 0.711304 10 1.2113 10 3.2113C10 4.8113 9 5.2113 8.5 5.2113H3.5C2.7 5.2113 2.5 5.87797 2.5 6.2113V9.2113Z" stroke="#91AEFF" stroke-width="0.5"/>
<path d="M9 9.2113V8.2113H12.5C13.3 8.2113 13.5 7.54464 13.5 7.2113V2.2113C13.5 1.4113 14.5 0.87797 15 0.711304H19.5V1.7113H16C15.2 1.7113 15 2.37797 15 2.7113V7.7113C15 8.5113 14 9.04464 13.5 9.2113H9Z" stroke="#91AEFF" stroke-width="0.5"/>
<path d="M22 0.711304H20.5C21.5 2.87797 24.2 7.5113 25 8.7113C25.6667 9.7113 26.1667 9.2113 26.5 8.7113L30.5 1.2113V0.711304H29.5L26.5 6.7113C26.1 7.5113 25.6667 7.04464 25.5 6.7113L22 0.711304Z" stroke="#91AEFF" stroke-width="0.5"/>
</svg>
