<svg width="25" height="16" viewBox="0 0 25 16" fill="none" xmlns="http://www.w3.org/2000/svg">
<g clip-path="url(#clip0_13_1214)">
<path d="M0 0H25V16H0V0Z" fill="white"/>
<path d="M0 0H25V1.23041H0V0ZM0 2.46082H25V3.69123H0V2.46082ZM0 4.92164H25V6.15205H0V4.92164ZM0 7.38246H25V8.61287H0V7.38246ZM0 9.84795H25V11.0784H0V9.84795ZM0 12.3088H25V13.5392H0V12.3088ZM0 14.7696H25V16H0V14.7696Z" fill="#D80027"/>
<path d="M0 0H12.5V8.61287H0V0Z" fill="#2E52B2"/>
<path d="M2.32949 6.49827L2.13456 5.89944L1.92013 6.49827H1.27686L1.7983 6.8585L1.60337 7.45733L2.13456 7.08774L2.65112 7.45733L2.45132 6.8585L2.98251 6.49827H2.32949ZM5.07315 6.49827L4.87335 5.89944L4.66867 6.49827H4.02539L4.54684 6.8585L4.3519 7.45733L4.87335 7.08774L5.39966 7.45733L5.20473 6.8585L5.72617 6.49827H5.07315ZM7.82656 6.49827L7.61701 5.89944L7.42208 6.49827H6.76419L7.30025 6.8585L7.09557 7.45733L7.61701 7.08774L8.15307 7.45733L7.9484 6.8585L8.46984 6.49827H7.82656ZM10.5654 6.49827L10.3704 5.89944L10.1657 6.49827H9.5176L10.0439 6.8585L9.84898 7.45733L10.3704 7.08774L10.8967 7.45733L10.6872 6.8585L11.2232 6.49827H10.5654ZM4.87335 3.52283L4.66867 4.12166H4.02539L4.54684 4.49125L4.3519 5.08072L4.87335 4.71581L5.39966 5.08072L5.20473 4.49125L5.72617 4.12166H5.07315L4.87335 3.52283ZM2.13456 3.52283L1.92013 4.12166H1.27686L1.7983 4.49125L1.60337 5.08072L2.13456 4.71581L2.65112 5.08072L2.45132 4.49125L2.98251 4.12166H2.32949L2.13456 3.52283ZM7.61701 3.52283L7.42208 4.12166H6.76419L7.30025 4.49125L7.09557 5.08072L7.61701 4.71581L8.15307 5.08072L7.9484 4.49125L8.46984 4.12166H7.82656L7.61701 3.52283ZM10.3704 3.52283L10.1657 4.12166H9.5176L10.0439 4.49125L9.84898 5.08072L10.3704 4.71581L10.8967 5.08072L10.6872 4.49125L11.2232 4.12166H10.5654L10.3704 3.52283ZM2.13456 1.15558L1.92013 1.74505H1.27686L1.7983 2.11464L1.60337 2.7088L2.13456 2.3392L2.65112 2.7088L2.45132 2.11464L2.98251 1.74505H2.32949L2.13456 1.15558ZM4.87335 1.15558L4.66867 1.74505H4.02539L4.54684 2.11464L4.3519 2.7088L4.87335 2.3392L5.39966 2.7088L5.20473 2.11464L5.72617 1.74505H5.07315L4.87335 1.15558ZM7.61701 1.15558L7.42208 1.74505H6.76419L7.30025 2.11464L7.09557 2.7088L7.61701 2.3392L8.15307 2.7088L7.9484 2.11464L8.46984 1.74505H7.82656L7.61701 1.15558ZM10.3704 1.15558L10.1657 1.74505H9.5176L10.0439 2.11464L9.84898 2.7088L10.3704 2.3392L10.8967 2.7088L10.6872 2.11464L11.2232 1.74505H10.5654L10.3704 1.15558Z" fill="white"/>
</g>
<defs>
<clipPath id="clip0_13_1214">
<rect width="25" height="16" fill="white"/>
</clipPath>
</defs>
</svg>
